<svg xmlns="http://www.w3.org/2000/svg" xmlns:xlink="http://www.w3.org/1999/xlink" width="40" zoomAndPan="magnify" viewBox="0 0 30 30.000001" height="40" preserveAspectRatio="xMidYMid meet" version="1.0"><defs><clipPath id="76f7f3b62f"><path d="M 0.484375 5.183594 L 29.515625 5.183594 L 29.515625 24 L 0.484375 24 Z M 0.484375 5.183594 " clip-rule="nonzero"/></clipPath></defs><g clip-path="url(#76f7f3b62f)"><path fill="#ff914b" d="M 26.789062 5.242188 C 25.277344 5.242188 24.046875 6.472656 24.046875 7.984375 C 24.046875 8.492188 24.1875 8.964844 24.425781 9.371094 L 20.054688 13.746094 C 19.660156 13.527344 19.210938 13.40625 18.734375 13.40625 C 17.628906 13.40625 16.675781 14.066406 16.242188 15.007812 L 11.984375 14.183594 C 11.707031 12.964844 10.617188 12.050781 9.3125 12.050781 C 7.800781 12.050781 6.570312 13.28125 6.570312 14.792969 C 6.570312 15.246094 6.683594 15.671875 6.878906 16.050781 L 4.382812 18.550781 C 4.027344 18.386719 3.636719 18.289062 3.226562 18.289062 C 1.714844 18.289062 0.484375 19.519531 0.484375 21.03125 C 0.484375 22.542969 1.714844 23.773438 3.226562 23.773438 C 4.738281 23.773438 5.96875 22.542969 5.96875 21.03125 C 5.96875 20.613281 5.871094 20.21875 5.703125 19.863281 L 8.25 17.316406 C 8.574219 17.457031 8.9375 17.53125 9.3125 17.53125 C 10.378906 17.53125 11.296875 16.921875 11.753906 16.035156 L 16.097656 16.878906 C 16.417969 18.035156 17.476562 18.886719 18.734375 18.886719 C 20.246094 18.886719 21.476562 17.660156 21.476562 16.148438 C 21.476562 15.792969 21.40625 15.457031 21.285156 15.148438 L 25.867188 10.566406 C 26.15625 10.667969 26.464844 10.726562 26.789062 10.726562 C 28.296875 10.726562 29.527344 9.496094 29.527344 7.984375 C 29.527344 6.472656 28.300781 5.242188 26.789062 5.242188 Z M 3.226562 21.910156 C 2.742188 21.910156 2.347656 21.515625 2.347656 21.03125 C 2.347656 20.546875 2.742188 20.152344 3.226562 20.152344 C 3.710938 20.152344 4.101562 20.546875 4.101562 21.03125 C 4.101562 21.515625 3.710938 21.910156 3.226562 21.910156 Z M 9.3125 15.667969 C 8.828125 15.667969 8.433594 15.273438 8.433594 14.792969 C 8.433594 14.308594 8.828125 13.914062 9.3125 13.914062 C 9.796875 13.914062 10.191406 14.308594 10.191406 14.792969 C 10.191406 15.273438 9.796875 15.667969 9.3125 15.667969 Z M 18.734375 17.023438 C 18.25 17.023438 17.859375 16.628906 17.859375 16.148438 C 17.859375 15.664062 18.25 15.269531 18.734375 15.269531 C 19.21875 15.269531 19.613281 15.664062 19.613281 16.148438 C 19.613281 16.628906 19.21875 17.023438 18.734375 17.023438 Z M 26.789062 8.863281 C 26.304688 8.863281 25.910156 8.46875 25.910156 7.984375 C 25.910156 7.5 26.304688 7.109375 26.789062 7.109375 C 27.269531 7.109375 27.664062 7.5 27.664062 7.984375 C 27.664062 8.46875 27.269531 8.863281 26.789062 8.863281 Z M 26.789062 8.863281 " fill-opacity="1" fill-rule="nonzero"/></g></svg>