<svg xmlns="http://www.w3.org/2000/svg" xmlns:xlink="http://www.w3.org/1999/xlink" width="50" zoomAndPan="magnify" viewBox="0 0 37.5 37.499999" height="50" preserveAspectRatio="xMidYMid meet" version="1.0"><defs><clipPath id="95ab1b7841"><path d="M 0 6.8125 L 37.007812 6.8125 L 37.007812 28.277344 L 0 28.277344 Z M 0 6.8125 " clip-rule="nonzero"/></clipPath></defs><g clip-path="url(#95ab1b7841)"><path fill="#ffffff" d="M 33.652344 6.90625 C 31.792969 6.90625 30.296875 8.402344 30.296875 10.261719 C 30.296875 11.292969 30.761719 12.222656 31.535156 12.839844 L 24.308594 23.113281 C 23.898438 22.855469 23.433594 22.75 22.917969 22.75 C 22.296875 22.75 21.675781 22.957031 21.214844 23.320312 L 13.730469 15.164062 C 14.089844 14.75 14.296875 14.234375 14.296875 13.613281 C 14.296875 12.324219 13.265625 11.292969 11.972656 11.292969 C 10.683594 11.292969 9.652344 12.324219 9.652344 13.613281 C 9.652344 14.078125 9.804688 14.542969 10.011719 14.90625 L 2.683594 20.945312 C 2.375 20.6875 2.011719 20.53125 1.601562 20.53125 C 0.722656 20.53125 0 21.253906 0 22.132812 C 0 23.007812 0.722656 23.730469 1.601562 23.730469 C 2.476562 23.730469 3.199219 23.007812 3.199219 22.132812 C 3.199219 21.820312 3.097656 21.5625 2.992188 21.304688 L 10.324219 15.265625 C 10.734375 15.679688 11.304688 15.9375 11.921875 15.9375 C 12.4375 15.9375 12.902344 15.78125 13.316406 15.472656 L 20.851562 23.679688 C 20.386719 24.195312 20.128906 24.816406 20.128906 25.539062 C 20.128906 27.085938 21.367188 28.324219 22.917969 28.324219 C 24.464844 28.324219 25.703125 27.085938 25.703125 25.539062 C 25.703125 24.660156 25.34375 23.9375 24.722656 23.421875 L 31.949219 13.152344 C 32.464844 13.460938 33.03125 13.613281 33.652344 13.613281 C 35.511719 13.613281 37.007812 12.117188 37.007812 10.261719 C 37.007812 8.402344 35.511719 6.90625 33.652344 6.90625 Z M 33.652344 6.90625 " fill-opacity="1" fill-rule="nonzero"/></g></svg>